<?xml version="1.0" encoding="UTF-8"?>
<svg xmlns="http://www.w3.org/2000/svg" xmlns:xlink="http://www.w3.org/1999/xlink"   viewBox="0 0 192 192" version="1.1">
<g>
<path style=" stroke:none;fill-rule:nonzero;fill-opacity:1;" fill="#00007f" d="M 51.976562 9.675781 C 50.703125 10.800781 50.402344 11.402344 50.402344 12.976562 C 50.402344 15.226562 51.003906 15.828125 56.703125 19.425781 C 63.003906 23.402344 69.679688 30.449219 75.828125 39.675781 C 77.101562 41.625 78.152344 43.351562 78.152344 43.574219 C 78.152344 43.722656 77.027344 44.472656 75.753906 45.222656 C 69.453125 48.523438 61.953125 55.796875 56.777344 63.449219 C 55.128906 66 53.628906 68.023438 53.550781 68.023438 C 53.476562 68.023438 50.175781 66.296875 46.351562 64.125 C 41.101562 61.199219 38.925781 60.226562 37.652344 60.226562 C 35.550781 60.226562 33.976562 61.652344 33.300781 64.203125 C 33 65.179688 31.726562 69.902344 30.375 74.703125 L 27.976562 83.402344 L 22.800781 83.628906 C 17.777344 83.855469 17.550781 83.929688 16.5 85.128906 C 14.925781 86.929688 15 89.179688 16.726562 91.054688 L 18.078125 92.554688 L 25.726562 92.554688 C 35.625 92.554688 34.875 93.230469 38.175781 81.003906 C 39.601562 75.980469 40.800781 71.855469 40.875 71.703125 C 41.023438 71.554688 49.125 75.902344 49.648438 76.351562 C 49.722656 76.425781 49.046875 78.601562 48.148438 81.226562 C 45.375 89.328125 43.347656 100.578125 43.347656 107.175781 C 43.347656 108.300781 43.273438 109.277344 43.121094 109.277344 C 42.972656 109.277344 40.421875 107.703125 37.496094 105.828125 C 32.621094 102.679688 31.945312 102.378906 30.371094 102.601562 C 29.394531 102.675781 28.195312 103.203125 27.746094 103.726562 C 27.222656 104.25 25.644531 108.453125 23.921875 113.925781 L 20.996094 123.300781 L 16.269531 123.375 C 13.644531 123.449219 11.019531 123.601562 10.417969 123.75 C 9.21875 124.050781 7.566406 126.523438 7.566406 128.023438 C 7.566406 129.597656 8.691406 131.546875 10.117188 132.148438 C 11.617188 132.824219 24.441406 132.898438 26.09375 132.222656 C 27.820312 131.546875 28.417969 130.347656 30.894531 122.171875 C 32.167969 118.046875 33.292969 114.597656 33.445312 114.445312 C 33.519531 114.371094 35.84375 115.644531 38.621094 117.371094 L 43.570312 120.519531 L 44.171875 124.570312 C 44.921875 130.121094 46.421875 136.421875 47.996094 141.21875 C 48.746094 143.394531 49.347656 145.417969 49.347656 145.644531 C 49.347656 145.945312 46.121094 147.371094 42.222656 148.871094 C 38.324219 150.371094 34.871094 151.871094 34.496094 152.320312 C 34.121094 152.695312 32.621094 156.746094 31.195312 161.171875 L 28.496094 169.347656 L 23.394531 170.621094 C 17.320312 172.121094 16.945312 172.269531 16.042969 173.996094 C 14.691406 176.546875 15.59375 179.394531 18.144531 180.445312 C 19.496094 180.96875 20.320312 180.894531 26.695312 179.320312 C 32.246094 177.96875 34.046875 177.296875 35.09375 176.394531 C 36.070312 175.496094 36.894531 173.46875 38.917969 167.09375 L 41.46875 158.992188 L 47.09375 156.816406 C 50.167969 155.691406 52.945312 154.714844 53.242188 154.714844 C 53.542969 154.714844 54.367188 155.839844 55.117188 157.113281 C 58.71875 163.5625 66.21875 171.738281 72.140625 175.714844 C 85.414062 184.789062 100.941406 185.914062 115.039062 178.941406 C 120.0625 176.464844 124.113281 173.316406 128.988281 168.214844 C 132.511719 164.613281 138.214844 156.890625 138.886719 155.015625 C 138.960938 154.714844 141.210938 155.316406 144.886719 156.742188 L 150.738281 158.992188 L 153.289062 167.015625 C 155.238281 173.316406 156.0625 175.339844 157.113281 176.316406 C 158.089844 177.214844 160.039062 177.890625 165.589844 179.316406 C 172.714844 181.042969 172.714844 181.042969 174.289062 180.214844 C 176.765625 178.863281 177.4375 176.464844 176.164062 173.988281 C 175.265625 172.261719 174.890625 172.039062 168.8125 170.613281 L 163.636719 169.339844 L 161.085938 161.390625 C 159.660156 157.039062 158.160156 153.066406 157.710938 152.464844 C 157.261719 151.941406 153.960938 150.363281 150.359375 149.015625 C 146.757812 147.664062 143.683594 146.390625 143.535156 146.242188 C 143.386719 146.167969 144.058594 143.84375 144.886719 141.066406 C 146.6875 135.441406 148.113281 129.066406 148.863281 123.816406 C 149.089844 121.867188 149.386719 120.140625 149.464844 120.066406 C 150.363281 119.242188 158.691406 114.214844 158.839844 114.367188 C 158.914062 114.441406 160.039062 117.96875 161.316406 122.09375 C 163.867188 130.34375 164.464844 131.542969 166.191406 132.21875 C 168.140625 132.96875 180.890625 132.820312 182.390625 132.070312 C 184.714844 130.796875 185.316406 128.019531 183.816406 125.546875 C 182.765625 123.746094 182.167969 123.597656 176.089844 123.445312 L 171.289062 123.371094 L 168.4375 113.996094 C 166.710938 108.519531 165.210938 104.320312 164.6875 103.796875 C 164.164062 103.273438 163.039062 102.820312 162.136719 102.597656 C 160.636719 102.371094 159.960938 102.671875 155.238281 105.597656 C 152.386719 107.398438 149.914062 108.824219 149.761719 108.824219 C 149.613281 108.824219 149.386719 106.5 149.238281 103.800781 C 148.863281 97.351562 147.0625 88.574219 144.8125 81.75 C 143.238281 76.875 143.085938 76.425781 143.835938 75.898438 C 145.035156 75 151.335938 71.546875 151.484375 71.773438 C 151.558594 71.847656 152.757812 76.046875 154.109375 81.074219 C 157.484375 93.300781 156.734375 92.625 166.632812 92.625 L 174.28125 92.625 L 175.632812 91.125 C 177.359375 89.25 177.433594 87.074219 175.859375 85.199219 C 174.808594 83.925781 174.507812 83.925781 169.558594 83.699219 L 164.382812 83.472656 L 161.984375 74.773438 C 160.710938 69.972656 159.359375 65.25 159.058594 64.273438 C 158.382812 61.722656 156.734375 60.296875 154.707031 60.296875 C 153.132812 60.296875 149.757812 61.945312 140.90625 66.972656 L 139.105469 68.097656 L 136.253906 63.746094 C 131.453125 56.472656 124.027344 49.269531 117.277344 45.371094 C 115.703125 44.472656 114.277344 43.644531 114.128906 43.570312 C 113.828125 43.34375 119.527344 35.09375 122.304688 31.71875 C 126.355469 26.84375 131.378906 22.195312 135.429688 19.570312 C 141.28125 15.820312 141.878906 15.296875 141.878906 13.046875 C 141.878906 11.472656 141.578125 10.871094 140.304688 9.746094 C 138.128906 7.796875 136.253906 8.171875 131.230469 11.320312 C 123.355469 16.195312 115.855469 23.996094 109.03125 34.269531 C 107.082031 37.269531 105.355469 39.894531 105.28125 40.121094 C 105.207031 40.421875 104.230469 40.421875 102.355469 40.121094 C 98.679688 39.519531 93.878906 39.519531 90.28125 40.195312 C 88.257812 40.570312 87.28125 40.570312 87.132812 40.269531 C 86.683594 39.144531 80.007812 29.394531 77.53125 26.246094 C 70.332031 17.472656 59.980469 9.144531 55.332031 8.621094 C 53.757812 8.320312 53.230469 8.546875 51.957031 9.671875 Z M 105.902344 50.402344 C 112.277344 52.503906 117.300781 55.800781 122.402344 61.203125 C 125.175781 64.128906 128.851562 68.851562 128.550781 69.152344 C 124.949219 72.003906 117.074219 75.828125 111.601562 77.402344 C 99.601562 80.851562 86.101562 80.027344 74.925781 75.226562 C 70.574219 73.425781 64.875 69.976562 64.574219 69.152344 C 64.425781 68.851562 65.472656 66.976562 66.972656 65.101562 C 73.199219 56.925781 81.597656 51.226562 90.148438 49.425781 C 94.648438 48.449219 101.398438 48.824219 105.898438 50.402344 Z M 63.226562 79.503906 C 70.125 83.777344 78.453125 86.777344 86.925781 88.054688 L 91.949219 88.804688 L 91.949219 131.40625 C 91.949219 162.230469 91.800781 174.007812 91.425781 174.007812 C 89.925781 174.007812 84.902344 172.359375 82.125 171.007812 C 77.476562 168.683594 75.148438 166.957031 71.101562 162.832031 C 61.425781 153.082031 55.050781 138.683594 52.953125 121.582031 C 52.277344 115.808594 52.652344 102.308594 53.703125 96.457031 C 54.976562 89.40625 58.953125 76.882812 59.777344 77.40625 C 59.925781 77.480469 61.503906 78.457031 63.226562 79.507812 Z M 134.925781 81.605469 C 140.175781 94.804688 141.675781 113.105469 138.75 128.40625 C 137.476562 134.78125 134.851562 142.804688 133.199219 145.28125 C 132.449219 146.332031 131.847656 147.605469 131.847656 148.054688 C 131.847656 150.304688 125.546875 159.230469 120.671875 163.804688 C 115.195312 169.054688 108.445312 172.804688 102.820312 173.78125 L 101.09375 174.082031 L 101.09375 88.730469 L 103.269531 88.429688 C 113.246094 87.078125 124.269531 83.179688 130.417969 78.828125 C 131.316406 78.152344 132.367188 77.703125 132.742188 77.777344 C 133.117188 77.851562 134.09375 79.425781 134.917969 81.601562 Z M 134.925781 81.605469 "/>
</g>
</svg>
